<?xml version="1.0" encoding="utf-8"?>
<!-- Generator: Adobe Illustrator 25.4.1, SVG Export Plug-In . SVG Version: 6.00 Build 0)  -->
<svg version="1.1" id="Layer_1" xmlns="http://www.w3.org/2000/svg" xmlns:xlink="http://www.w3.org/1999/xlink" x="0px" y="0px"
	 viewBox="0 0 56 53" style="enable-background:new 0 0 56 53;" xml:space="preserve">
<style type="text/css">
	.st0{fill:#0A0909;}
</style>
<g>
	<g>
		<g>
			<path class="st0" d="M9.4,27.8c-3.6,0.3-5,4.1-4.4,7.3c0.6,3.3,3.5,4.7,6.6,4.2c0.5-0.1,0.3-0.9-0.2-0.8
				c-2.5,0.4-4.9-0.7-5.5-3.3c-0.6-2.6,0.5-6.2,3.6-6.5C10,28.6,10,27.8,9.4,27.8L9.4,27.8z"/>
		</g>
	</g>
	<g>
		<g>
			<path class="st0" d="M45.6,28.5c3.4-0.6,4.9,2.7,4.9,5.6c0,1.5-0.5,3-1.8,3.9c-1.2,0.8-2.7,1-4.1,0.7c-0.5-0.1-0.8,0.7-0.2,0.8
				c1.7,0.3,3.4,0.1,4.8-0.9c1.5-1.1,2.1-2.8,2.1-4.6c0-3.5-2-7.2-6-6.4C44.9,27.8,45.1,28.6,45.6,28.5L45.6,28.5z"/>
		</g>
	</g>
	<g>
		<g>
			<path class="st0" d="M28.2,51.3c8.4-0.1,15.7-7.2,17.9-15.1c1.3-4.6,0-9.5-0.5-14.2c-0.2-1.3-0.4-2.6-0.7-3.9
				c-0.3-1.1-0.5-2.3-1.2-3.3c-1-1.4-2.7-2.4-4.2-3c-0.9-0.4-1.9-0.7-2.8-1.1c-0.9-0.4-1.6-1-2.4-1.5c-1.7-1.2-3.5-2.4-5.5-2.7
				c-4.5-0.5-8.8,2.1-12.1,4.8c-1.7,1.4-3.5,3-4.7,4.9c-1,1.7-1.6,3.6-2,5.6c-0.9,4.6-1,9.5,0.1,14c1.1,4.3,3.2,8.3,6.6,11.2
				C19.9,49.8,24,51.2,28.2,51.3c0.6,0,0.6-0.9,0-0.9c-7.4-0.1-13.6-4.8-16.3-11.6c-1.7-4.3-2.1-8.9-1.6-13.4
				c0.4-3.9,1.3-8,4.2-10.8c3.2-3,6.5-6,11-6.9c2.3-0.4,4.2-0.3,6.2,0.9c1.6,0.9,2.9,2.2,4.6,3c1.5,0.7,3.2,1,4.5,2
				c0.8,0.5,1.7,1.2,2.2,2c0.7,1,0.9,2.4,1.2,3.6c0.5,2.3,0.7,4.7,1.1,7.1c0.4,2.3,0.7,4.6,0.6,7c-0.3,4.2-2.5,8.3-5.3,11.3
				c-3.2,3.5-7.4,6-12.3,6.1C27.6,50.4,27.6,51.3,28.2,51.3z"/>
		</g>
	</g>
	<g>
		<path class="st0" d="M8.6,28.5c0.1-2.4-0.4-4.9-0.6-7.3c-0.1-0.7-0.5-3.7-0.1-4.2c0.4-0.4,2.9,0.5,3.4,0.5
			c-0.1,3.5-1,7.3-1.7,10.7c-0.2,0-0.9,0-0.8,0"/>
		<g>
			<path class="st0" d="M9,28.5c0.1-3-0.5-6-0.8-9c0-0.5-0.1-1-0.1-1.5c0-0.7,0-0.6,0.6-0.5c0.9,0.1,1.7,0.5,2.6,0.5
				c-0.1-0.1-0.3-0.3-0.4-0.4c-0.1,3.6-1,7.1-1.6,10.6c0.1-0.1,0.3-0.2,0.4-0.3c-0.3,0-0.5,0-0.8,0c-0.6,0-0.6,0.9,0,0.9
				c0.3,0,0.5,0,0.8,0c0.2,0,0.4-0.1,0.4-0.3c0.6-3.6,1.5-7.2,1.7-10.8c0-0.3-0.2-0.4-0.4-0.4c-1-0.1-2-0.6-3-0.6c-1,0-1,1-1,1.8
				c0.1,3.4,1,6.8,0.9,10.2C8.1,29,9,29,9,28.5L9,28.5z"/>
		</g>
	</g>
	<g>
		<path class="st0" d="M45,17.6c-0.4,1.8,0.4,3.8,0.6,5.5c0.2,1.1-0.1,2.7,0.2,3.7c0.5,1.4,1.1,0.8,2.4,1.3c0.6-3.1,0.4-7.9,0-11
			c-0.9-0.1-2.9,0-3.5,0.5"/>
		<g>
			<path class="st0" d="M44.6,17.5c-0.3,1.3,0,2.6,0.3,3.8c0.3,1.3,0.4,2.6,0.4,3.9c0,0.9,0,2,0.7,2.6c0.6,0.5,1.4,0.4,2.1,0.6
				c0.2,0.1,0.5-0.1,0.5-0.3c0.7-3.6,0.5-7.4,0-11.1c0-0.3-0.2-0.4-0.4-0.4c-1.2-0.1-2.7-0.1-3.7,0.5c-0.5,0.3,0,1.1,0.4,0.7
				c0.9-0.6,2.3-0.5,3.3-0.4c-0.1-0.1-0.3-0.3-0.4-0.4c0.5,3.5,0.7,7.3,0,10.8c0.2-0.1,0.4-0.2,0.5-0.3c-0.6-0.2-1.5-0.1-1.9-0.6
				c-0.5-0.8-0.3-2-0.3-2.9c0-2.1-1.1-4.2-0.7-6.4C45.5,17.2,44.7,17,44.6,17.5L44.6,17.5z"/>
		</g>
	</g>
	<g>
		<path class="st0" d="M8.4,5.2c-2.7-0.2-4.6,4-1.8,4.9l0,0c-3.1-0.8-3.2,6.2,0.4,4.5c-1.1,0.7-1.2,2.8,0.2,3.2
			c1.4,0.4,3.2-0.7,4.1-1.7c-0.1,3.5,4.2,3.5,4.9,0.4c0.6,3.5,4.1,1.9,5.4-0.4c0.1,1,0.3,2.3,1.5,2.4c0.9,0.1,2.1-1,2.1-1.8
			c0.2,2.4,4.4,2.4,4.6,0c0.4,2.8,4.9,2,3.9,0.1c0.5,2.4,4.1,2.4,4-0.3c-0.1,2.6,4.3,2.4,3.6-0.2c0.2,2.5,4,2.4,3.5-0.2
			c0.3,2.9,3.9,1.1,2.5-0.7c0.4,1.8,2.1,2.4,3.2,0.6c0.6-1.1,0.2-3.3-1.2-3.6c1.6,0.2,1-2.2,0.5-2.9c-0.7-0.9-2.4-1-3.4-0.7
			c1.4-2-1.8-4.7-3-2.5c-0.1-2-2.9-4-4.5-2.1c-0.3-3-2.6-3.5-4.1-1c-0.8-2.4-4.2-3-4.8-0.3c-0.8-2-5.4-3.3-5.3-0.6
			c-0.4-1.1-3.8-1-3.7,0.2c-0.6-2.3-5.4-2.4-4,0.6c-0.7-2.4-4.6-2-4.3,0.8c-0.7-1.6-1.7-2.8-3.2-1.6C8.7,3.1,8.5,4.5,8.4,5.2"/>
		<g>
			<path class="st0" d="M8.4,4.8c-3-0.1-5.3,4.6-1.9,5.8c0.1-0.3,0.2-0.5,0.2-0.8C2.8,8.9,3,16.9,7.3,15c-0.1-0.3-0.3-0.5-0.4-0.7
				C5.7,15,5.3,17,6.6,17.9c1.6,1.2,4-0.4,5.1-1.5c-0.3-0.1-0.5-0.2-0.7-0.3c0,1.5,0.8,3,2.5,3.1c1.6,0.1,2.9-1.1,3.3-2.6
				c-0.3,0-0.5,0-0.8,0c0.3,1.4,1.2,2.5,2.7,2.3c1.5-0.2,2.7-1.3,3.5-2.6c-0.3-0.1-0.5-0.1-0.8-0.2c0.1,1.1,0.4,2.5,1.7,2.8
				c1.2,0.2,2.6-0.9,2.8-2.1c-0.3,0-0.5,0-0.8,0c0.4,2.8,5.1,2.8,5.5,0c-0.3,0-0.5,0-0.8,0c0.3,1.5,1.7,2.3,3.1,2.1
				c1.2-0.2,2.1-1.1,1.6-2.3c-0.2-0.4-0.9-0.1-0.8,0.3c0.7,2.8,4.9,2.7,4.8-0.4c-0.3,0-0.6,0-0.9,0c0.1,3.1,5.2,2.9,4.5-0.3
				c-0.1-0.6-0.9-0.3-0.8,0.2c0.4,2.9,4.8,2.7,4.3-0.4c-0.1-0.5-0.9-0.3-0.8,0.2c0.2,1.2,1.2,2.2,2.5,1.7c1.1-0.5,1.5-1.7,0.8-2.8
				c-0.3-0.4-0.9-0.2-0.8,0.3c0.5,1.9,2.6,2.8,3.8,1c1-1.4,0.5-3.9-1.3-4.5c0,0.3-0.1,0.6-0.1,0.9c1.7,0.1,1.6-1.8,1.2-2.9
				C50,8.3,48,8,46.4,8.5c0.2,0.2,0.3,0.4,0.5,0.6c1.5-2.4-2.1-5.6-3.8-2.9c0.3,0.1,0.5,0.1,0.8,0.2C43.7,4,40.7,1.9,38.7,4
				c0.3,0.1,0.5,0.2,0.7,0.3c-0.1-1.2-0.6-2.7-1.9-3c-1.3-0.3-2.4,0.8-3,1.7c0.3,0,0.5,0.1,0.8,0.1c-0.9-2.6-4.8-3.5-5.6-0.3
				c0.3,0,0.5-0.1,0.8-0.1c-0.9-2.1-6.1-3.8-6.1-0.4c0.3-0.1,0.5-0.1,0.8-0.2c-0.7-1.4-4.4-1.5-4.5,0.4c0.3,0,0.6-0.1,0.9-0.1
				c-0.9-2.9-6.3-2.6-4.8,0.9c0.2,0.4,0.9,0.1,0.8-0.3c-1-3-5.3-2.3-5.2,0.9c0.3-0.1,0.5-0.1,0.8-0.2c-0.5-1.3-1.6-2.8-3.2-2.1
				C8.6,2.3,8.2,3.8,8,5.2C8,5.7,8.8,5.7,8.9,5.2c0.1-0.9,0.3-1.9,1-2.5c1.2-1,2.1,0.4,2.5,1.5c0.2,0.4,0.8,0.2,0.8-0.2
				c-0.1-2.1,2.8-2.8,3.5-0.7C17,3.1,17.2,3,17.5,2.9c-0.9-2.2,2.7-2,3.3-0.3c0.1,0.5,0.8,0.4,0.9-0.1c0-0.9,2.6-0.6,2.9,0.1
				c0.2,0.4,0.8,0.2,0.8-0.2c0-2.4,3.9-0.5,4.5,0.8c0.2,0.4,0.7,0.2,0.8-0.1c0.5-2.3,3.3-1.5,3.9,0.3c0.1,0.4,0.6,0.4,0.8,0.1
				c0.4-0.6,1.2-1.5,2-1.3c0.9,0.2,1.2,1.4,1.3,2.1c0,0.4,0.4,0.6,0.7,0.3c1.4-1.4,3.6,0.1,3.8,1.8c0,0.4,0.6,0.6,0.8,0.2
				c1-1.7,3.2,0.6,2.3,2.1C46,9,46.4,9.4,46.7,9.3c1-0.3,2.5-0.3,3.1,0.7c0.3,0.5,0.7,2.1-0.3,2c-0.5,0-0.6,0.7-0.1,0.9
				c1,0.3,1.3,1.8,1,2.7c-0.2,0.6-0.8,1.2-1.5,1.1c-0.6-0.1-0.9-0.8-1.1-1.4c-0.3,0.1-0.5,0.2-0.8,0.3c0.4,0.6,0.3,1.2-0.4,1.5
				c-0.8,0.3-1.2-0.4-1.3-1.1c-0.3,0.1-0.5,0.2-0.8,0.2c0.1,0.8-0.3,1.5-1.2,1.4c-0.9,0-1.3-0.7-1.4-1.5c-0.3,0.1-0.5,0.2-0.8,0.2
				c0.4,1.9-2.7,2-2.8,0.1c0-0.5-0.9-0.6-0.9,0c0,2.2-2.6,2.1-3.1,0.2c-0.3,0.1-0.5,0.2-0.8,0.3c0.4,0.8-0.7,1.1-1.3,1.1
				c-1,0-1.7-0.6-1.9-1.5c-0.1-0.4-0.8-0.4-0.8,0c-0.3,2-3.5,2-3.8,0c-0.1-0.4-0.8-0.4-0.8,0c-0.1,0.8-1.2,1.9-2,1.4
				c-0.6-0.3-0.7-1.2-0.7-1.8c0-0.4-0.6-0.6-0.8-0.2c-1.1,1.7-4,3.5-4.6,0.5c-0.1-0.4-0.7-0.4-0.8,0c-0.6,2.5-4.1,2.7-4.1-0.2
				c0-0.4-0.5-0.6-0.7-0.3c-0.8,0.9-2.1,1.7-3.3,1.7c-1.3-0.1-1.4-1.8-0.5-2.5c0.5-0.3,0.1-1-0.4-0.7c-2.8,1.2-2.7-4.2-0.3-3.7
				c0.5,0.1,0.8-0.6,0.2-0.8C4.3,8.8,6.5,5.5,8.5,5.6C9,5.7,9,4.8,8.4,4.8L8.4,4.8z"/>
		</g>
	</g>
	<g>
		<path class="st0" d="M13.7,42.9c2.9,1.4,6.4,2.7,9.7,2.4c0.8-0.1,4.4-1.6,4.4-1.6s3.1,1.8,3.8,2c3.6,0.8,8.2-0.6,11-2.8
			c0.1,1.2-3.1,5.8-4.4,6.6c-2.4,1.4-4.6,2.9-7.5,3.4c-2,0.4-4,0.3-6-0.1C19.1,51.7,14.6,47.6,13.7,42.9"/>
	</g>
	<g>
		<g>
			<path class="st0" d="M13.8,27.9c1.2-1.6,2.8-2.8,4.8-2.8c1.9,0,3.7,1.1,4.1,3c0.1,0.5,1,0.3,0.8-0.2c-0.5-2.1-2.5-3.5-4.7-3.6
				c-2.4-0.1-4.4,1.3-5.8,3.2C12.7,27.9,13.5,28.4,13.8,27.9L13.8,27.9z"/>
		</g>
	</g>
	<g>
		<g>
			<path class="st0" d="M41.8,27.7c-1.4-1.9-3.4-3.3-5.8-3.2c-2.1,0.1-4.2,1.4-4.7,3.6c-0.1,0.5,0.7,0.8,0.8,0.2
				c0.4-1.9,2.3-2.9,4.1-3c2,0,3.7,1.2,4.8,2.8C41.4,28.6,42.1,28.2,41.8,27.7L41.8,27.7z"/>
		</g>
	</g>
	<g>
		<g>
			<path class="st0" d="M26.1,34.4c0.6,0.2,1.1,0.7,1.7,1c0.2,0.1,0.4,0.1,0.5-0.1c0.4-0.4,0.8-0.9,1.3-1.3c0.4-0.3,0-1.1-0.4-0.7
				c-0.6,0.4-1,0.9-1.5,1.4c0.2,0,0.4,0,0.5-0.1c-0.6-0.4-1.2-0.9-1.9-1.1C25.8,33.4,25.5,34.3,26.1,34.4L26.1,34.4z"/>
		</g>
	</g>
	<g>
		<g>
			<path class="st0" d="M22.3,40.5c4,1.5,8.9,1.6,12.3-1.5c0.4-0.4-0.2-1-0.6-0.6c-3.1,2.8-7.7,2.7-11.4,1.2
				C22,39.5,21.7,40.4,22.3,40.5L22.3,40.5z"/>
		</g>
	</g>
	<g>
		<path class="st0" d="M18.6,24.9c-1.8,0.1-2,3-0.3,3.3c2.3,0.5,2.7-3.5,0.4-3.1"/>
	</g>
	<g>
		<path class="st0" d="M36.2,25.1c-1.8,0.1-2,3-0.3,3.3c2.3,0.5,2.7-3.5,0.4-3.1"/>
	</g>
	<g>
		<g>
			<path class="st0" d="M31.6,21.3c1.7-0.4,3.5-0.5,5.2-0.4c1.2,0.1,2.3,0.4,3.5,0.3c0.5,0,0.6-0.9,0-0.9c-1.3,0.1-2.6-0.3-3.9-0.3
				c-1.7-0.1-3.4,0.1-5.1,0.4C30.8,20.6,31,21.4,31.6,21.3L31.6,21.3z"/>
		</g>
	</g>
	<g>
		<g>
			<path class="st0" d="M23.3,20.4c-1.7-0.4-3.4-0.5-5.1-0.4c-1.3,0.1-2.6,0.4-3.9,0.3c-0.6,0-0.5,0.8,0,0.9
				c1.2,0.1,2.3-0.2,3.5-0.3c1.8-0.2,3.5,0,5.2,0.4C23.6,21.4,23.8,20.6,23.3,20.4L23.3,20.4z"/>
		</g>
	</g>
	<g>
		<g>
			<path class="st0" d="M47.1,37.7c-0.8,0.3-1.1,1.3-1,2.1c0.1,0.9,0.9,1.5,1.8,1.4c1.5-0.1,2.4-2.3,0.9-3.1
				c-0.5-0.3-0.9,0.5-0.4,0.7c0.7,0.4,0.2,1.3-0.4,1.5c-0.4,0.1-0.9-0.2-0.9-0.6c-0.1-0.3,0.1-1.1,0.4-1.2
				C47.8,38.3,47.6,37.5,47.1,37.7L47.1,37.7z"/>
		</g>
	</g>
</g>
</svg>
