<?xml version="1.0" encoding="utf-8"?>
<!-- Generator: Adobe Illustrator 25.4.1, SVG Export Plug-In . SVG Version: 6.00 Build 0)  -->
<svg version="1.1" id="Layer_1" xmlns="http://www.w3.org/2000/svg" xmlns:xlink="http://www.w3.org/1999/xlink" x="0px" y="0px"
	 viewBox="0 0 56 53" style="enable-background:new 0 0 56 53;" xml:space="preserve">
<style type="text/css">
	.st0{fill-rule:evenodd;clip-rule:evenodd;fill:#0A0909;}
</style>
<g transform="matrix(1.07277,0,0,1.06794,-32.4862,-39.1969)">
	<path class="st0" d="M53.9,61c-0.6,0.4-0.8,0.9-0.9,1.4c-0.1,0.3-0.1,0.6-0.2,1c-0.7,1.9-1.3,3.7-1.7,5.7
		c-0.6,3.9-1.2,8.4,0.5,12.2c0.4,1,1,1.9,1.7,2.7c3.4,3.9,9.3,2.5,12.8-0.4c1.7-1.4,3.4-3.2,4.6-5c0.1-0.1,0-0.3-0.1-0.4
		s-0.3,0-0.4,0.1c-1.1,1.8-2.8,3.6-4.5,4.9c-3.4,2.7-8.9,4.1-12.1,0.4C53,82.9,52.5,82,52,81.1c-1.6-3.7-1.1-8.1-0.4-11.9
		c0.3-2,1-3.8,1.6-5.7c0.1-0.4,0.2-0.7,0.3-1c0.1-0.4,0.2-0.8,0.7-1.1c0.1-0.1,0.2-0.2,0.1-0.4C54.1,61,54,60.9,53.9,61z"/>
	<path class="st0" d="M70.6,79c0.5-1,1-1.9,1.4-3c0-0.1,0-0.3-0.2-0.3c-0.1,0-0.3,0-0.3,0.2c-0.4,1-0.9,2-1.4,2.9
		c-0.1,0.1,0,0.3,0.1,0.4C70.3,79.2,70.5,79.1,70.6,79z"/>
	<path class="st0" d="M72,75.9C71.9,76,71.9,76,71.8,76s-0.2-0.2-0.2-0.3c0.2-0.8,0.4-1.6,0.8-2.3c0.2-0.4,0.4-0.7,0.7-1
		c0.3-0.3,0.6-0.7,1-0.9c0.3-0.2,0.6-0.2,0.9-0.1s0.6,0.3,0.8,0.8c0.1,0.3,0.2,0.6,0.2,0.8c0.1,0.9-0.4,2.4-1.2,3.3
		c-0.6,0.7-1.4,1-2.2,0.8C72.2,77,72,76.7,72,76.3C72,76.2,72,76,72,75.9z M72.4,74.5c0.1-0.2,0.2-0.3,0.3-0.5
		c0.1-0.2,0.3-0.4,0.4-0.6c0.5-0.5,0.9-0.5,1.1-0.4c0.3,0.1,0.5,0.4,0.5,0.8c0.1,0.4-0.1,0.9-0.3,1.3c-0.2,0.3-0.4,0.5-0.8,0.5
		c-0.1,0-0.3-0.1-0.3-0.2s0.1-0.3,0.2-0.3c0.3-0.1,0.4-0.2,0.5-0.5s0.2-0.6,0.1-0.8c0-0.1,0-0.2-0.1-0.3c0-0.1-0.1-0.1-0.1-0.1
		c-0.1,0-0.1,0-0.2,0s-0.3,0.1-0.4,0.3c-0.1,0.1-0.3,0.3-0.4,0.5c-0.2,0.3-0.4,0.7-0.5,1.1c-0.1,0.2-0.2,0.6-0.1,0.9
		c0,0.1,0,0.3,0.1,0.3c0.6,0.2,1.2-0.1,1.7-0.6c0.7-0.8,1.2-2.1,1.1-2.9c0-0.2-0.1-0.5-0.2-0.7c-0.1-0.3-0.3-0.5-0.4-0.5
		c-0.2,0-0.4,0-0.6,0.1c-0.3,0.2-0.6,0.5-0.8,0.7c-0.2,0.3-0.4,0.6-0.6,0.9C72.7,73.9,72.5,74.2,72.4,74.5z"/>
	<path class="st0" d="M50.8,72c-0.5-1-1.3-2-1.4-3.2c-0.1-1,0.3-1.9,0.4-2.9c0.1-1.1,0-2.4,0.4-3.5c0.3-0.8,1-1.3,1.3-2
		c0.5-1.2,0.6-2.5,1.6-3.5c1.1-1.1,2.3-0.8,3.5-1.5c1-0.6,1.7-1.6,2.9-2c0.8-0.2,1.6,0.1,2.3,0c1.3-0.2,2.4-1.2,3.8-0.9
		c0.9,0.2,1.4,1,2.3,1.2c1,0.2,2-0.3,3-0.1c0.9,0.2,1.3,1.1,2.1,1.6c0.4,0.2,0.9,0.4,1.2,0.8c0.3,0.5,0.2,1.1,0.6,1.6
		c0.6,0.6,1.5,0.8,1.9,1.7c0.2,0.5,0.1,1.1,0.3,1.7c0.2,0.5,0.5,0.8,0.6,1.3c0,0.6-0.3,1.1-0.3,1.7c0,0.7,0.4,1.3,0.4,1.9
		c0,0.5-0.4,1-0.4,1.5c-0.1,0.4,0.1,0.9,0,1.3c-0.2,0.5-0.6,1-0.8,1.5c-0.1,0.3-0.2,0.9-0.5,1.2c-0.3,0.3-1.1,0.2-1.5,0.3
		c-0.9,0.3-1.4,0.9-1.9,1.7c-0.1,0.2-0.1-0.4-0.1-0.6c0-0.4,0.2-0.8,0-1.2c-0.2-0.6-0.9-1.1-1-1.7c-0.2-0.8,0.4-1.5,0-2.3
		c-0.5-0.6-0.8-1-0.9-1.6c-0.2-0.7,0-1.4-0.5-2.1c-0.6-0.8-1.6-0.7-2.3-1.3c-0.5-0.4-0.7-1.2-1.1-1.7c-0.5-0.5-1.2-0.3-1.8-0.6
		c-0.8-0.4-1.2-1.3-2.1-1.6c-0.6-0.2-1.1,0.3-1.7,0.2c-0.8-0.1-1.3-0.8-2.2-0.8c-1,0.1-1.1,1-1.9,1.4c-0.7,0.4-1.2,0.1-1.7,0.8
		c-1.7,2.3-2.7,4.8-3.1,7.4c-0.2,1.2-0.8,2.4-1.1,3.6"/>
	<path class="st0" d="M69.2,54.6c0.9-1.1,1.1-2.7,0.1-3.8c-0.5-0.5-1.5-0.9-1.6-1.7c-0.3-1.6,1.1-2.8,0.3-4.5c-0.8-1.8-2.5-1-3.7-2
		c-1.1-1-1-3-2.7-3.6c-1.1-0.4-2.1,0.7-3.2,0.3c-1.5-0.5-1.8-2.4-3.7-2.3c-1.6,0.1-1.9,1.8-3.4,2.1C50,39.3,48.6,37,47.1,38
		c-1.4,1-0.5,2.7-1.4,3.9c-0.6,1-2.2,1.3-2.6,2.5c-0.3,0.8,0.7,1.7,0.2,2.6c-0.9,1.5-3,1.7-3.3,3.7c-0.2,1.2,1.9,1.2,2,2.2
		c0,1.3-1.9,2.6-1.2,3.9c0.5,1,1.3,1.1,2.3,1c0.5-0.1,1.4-0.4,1.8,0.1c0.7,0.8,0.5,2.2,1.1,3.1c0.7,1.2,1.2,0.2,2,0.6
		c0.6,0.4,1,1.3,1.7,1.4c0.8,0.1,1.1-0.5,1.6-0.9c0.4-0.3,1-0.4,1.4-0.8c0.7-0.7,1.1-1.6,1.8-2.3c1-1,2.7-1.8,3.9-2.4
		c1.1-0.6,2.9-0.8,4.2-0.4c1.4,0.4,3.1,1.3,4.5,0.5L69.2,54.6z"/>
	<path class="st0" d="M52.8,59.5c0,0.1,0.1,0.2,0.1,0.2c0,0.1,0,0.2,0,0.3s0,0.2-0.1,0.3c-0.1,0.4-0.2,0.8-0.4,1.1
		c-0.2,0.4-0.4,0.7-0.7,1c-0.4,0.4-1,0.6-1.5,0.6s-1-0.1-1.4-0.5l-0.1-0.1c0,0,0,0,0-0.1l0,0l0,0c0,0,0,0,0.1,0c0,0,0.1,0,0.1,0.1
		c0.4,0.3,0.8,0.4,1.2,0.4c0.5,0,1-0.2,1.3-0.6c0.3-0.3,0.5-0.6,0.7-0.9c0.2-0.4,0.3-0.7,0.4-1.1c0-0.1,0-0.2,0.1-0.3s0-0.2,0-0.3
		s0-0.2,0-0.3s0-0.2,0.1-0.2c0,0,0.1-0.1,0.2,0c0.3,0.1,0.6,0.3,0.9,0.4c0.2,0.1,0.4,0.1,0.6,0.1c0.2-0.1,0.4-0.3,0.6-0.7
		c0.1-0.1,0.1-0.3,0.1-0.4c0-0.1,0.1-0.3,0.1-0.4c0-0.1,0-0.3,0-0.3c0-0.1,0-0.1,0.1-0.1c0,0,0,0,0.1,0c0,0,0,0,0.1,0
		c0.2,0.1,0.7,0.4,0.8,0.4c0.5,0.1,0.9,0,1.1-0.2c0.3-0.3,0.4-0.7,0.3-1.1c0-0.1,0-0.1,0.1-0.1s0.1,0,0.1,0.1c0.1,0.5-0.1,1-0.4,1.3
		s-0.8,0.4-1.3,0.3c-0.1,0-0.6-0.3-0.8-0.4l0,0l0,0l0,0l0,0l0,0c0,0.1,0.1,0.2,0,0.3c0,0.2,0,0.3-0.1,0.4c0,0.2-0.1,0.3-0.1,0.4
		c-0.2,0.5-0.4,0.8-0.7,0.9c-0.2,0.1-0.5,0.1-0.7,0C53.3,59.8,53.1,59.6,52.8,59.5z M52.8,59.4C52.8,59.4,52.9,59.4,52.8,59.4
		L52.8,59.4z M55.2,57.8L55.2,57.8L55.2,57.8z"/>
	<path class="st0" d="M62.9,55.7L62.9,55.7C62.9,55.8,62.9,55.8,62.9,55.7c-0.2,0.2-0.4,0.4-0.5,0.5c-0.1,0.2-0.3,0.4-0.4,0.5
		c-0.2,0.2-0.4,0.3-0.6,0.3c-0.1,0-0.1,0-0.1-0.1s0-0.1,0.1-0.1c0.2,0,0.3-0.1,0.4-0.2l0.1-0.1c0.2-0.2,0.4-0.6,0.6-0.8
		c0.1-0.1,0.2-0.2,0.3-0.2l0,0c0,0,0,0,0.1,0l0,0C62.9,55.6,63,55.6,62.9,55.7c0.2,0,0.4,0.3,0.4,0.4c0.2,0.2,0.5,0.4,0.9,0.5
		c0.2,0,0.4,0,0.6-0.2s0.2-0.4,0.3-0.7c0.1-0.4,0.1-0.8,0.1-1.1V54v-0.1c0-0.1,0-0.1-0.1-0.2c0-0.1,0-0.1,0-0.1c0-0.1,0.1-0.1,0.2,0
		c0.4,0.3,0.7,0.6,1.1,0.9c0.1,0.1,0.3,0.2,0.5,0.3c0.8,0.3,1.4,0.2,1.9-0.1c0.3-0.2,0.6-0.4,0.8-0.7c0.4-0.4,0.6-1,0.9-1.5
		c0-0.1,0.1-0.2,0.1-0.2l0,0c0,0,0,0,0.1,0l0,0l0,0c0,0,0,0,0,0.1l0,0c0,0.1-0.1,0.2-0.1,0.3c-0.2,0.6-0.5,1.1-0.8,1.6
		c-0.3,0.3-0.5,0.6-0.9,0.8c-0.6,0.4-1.3,0.5-2.2,0.2c-0.2-0.1-0.4-0.2-0.6-0.3c-0.3-0.2-0.6-0.5-0.9-0.8v0.1v0.6
		c0,0.4-0.1,0.8-0.2,1.1s-0.2,0.5-0.3,0.7C64.5,56.9,64.3,57,64,57c-0.4,0-0.7-0.3-0.9-0.5C63.2,56.1,63,55.8,62.9,55.7L62.9,55.7z
		 M65.2,53.7L65.2,53.7L65.2,53.7L65.2,53.7z"/>
	<path class="st0" d="M53.4,43.2c-0.1-0.1-0.2-0.1-0.4-0.2c-0.1-0.1-0.2-0.2-0.3-0.3c-0.3-0.3-0.8-0.8-0.9-1.3
		c-0.1-0.4-0.1-0.8,0.3-1.1c1.1-0.9,2.4-1,3.6-0.6c0.5,0.2,1,0.5,1.4,0.9s0.7,0.9,0.9,1.4c0,0.1,0.1,0.2,0.1,0.3v0.1l0,0l0,0
		L58,42.3c0-0.1-0.1-0.2-0.1-0.2c-0.2-0.5-0.6-0.9-1-1.3c-0.4-0.4-0.9-0.6-1.4-0.8c-1.1-0.4-2.3-0.3-3.3,0.5
		c-0.3,0.2-0.3,0.5-0.2,0.8c0.1,0.4,0.5,0.9,0.8,1.2c0.1,0.1,0.2,0.1,0.2,0.2c0.1,0.1,0.3,0.2,0.4,0.2c0.1,0,0.2,0,0.2,0.1
		c0.1,0,0.1,0,0.1,0.1c0,0,0.1,0.1,0,0.1c0,0,0,0.1-0.1,0.1c-1,0.3-1.9,0.2-2.8,0.4c-0.4,0.1-0.7,0.3-1,0.5
		c-0.4,0.3-0.6,0.7-0.7,1.2c-0.1,0.4,0.1,0.9,0.6,1.1c0.2,0.1,0.4,0.2,0.6,0.2c0.2,0,0.3,0,0.5,0s0.4,0,0.5,0l0,0l0,0
		c-0.2,0-0.4,0.1-0.5,0.1c-0.2,0-0.4,0-0.5,0c-0.2,0-0.5-0.1-0.7-0.2c-0.5-0.2-0.7-0.6-0.7-1c-0.1-0.6,0.3-1.2,0.8-1.6
		c0.4-0.3,0.7-0.4,1.1-0.5c0.4-0.1,0.8-0.1,1.1-0.2C52.5,43.3,53,43.3,53.4,43.2z"/>
	<path class="st0" d="M55.1,46.7C55,46.7,55,46.7,55.1,46.7l-0.2,0.1c-0.6,0.5-1.2,1.4-1.3,2.2c-0.1,0.5,0,1,0.4,1.3
		c0.1,0.1,0.3,0.2,0.5,0.3h0.1v-0.1c-0.2-0.1-0.3-0.2-0.4-0.3c-0.3-0.3-0.4-0.7-0.3-1.1c0.1-0.8,0.7-1.6,1.2-2.1l0.1-0.1
		C55,46.9,55.1,46.8,55.1,46.7C55.1,46.8,55.1,46.8,55.1,46.7L55.1,46.7z"/>
	<path class="st0" d="M57.4,47.8c-0.1,0.1-0.1,0.1-0.2,0.2c0,0,0,0,0,0.1c-0.1,0.2-0.2,0.5-0.2,0.8c0,0.1,0,0.2,0.1,0.3
		s0.1,0.3,0.3,0.4h0.1v-0.1c-0.1-0.1-0.2-0.2-0.2-0.4c0-0.1,0-0.2-0.1-0.3c0-0.2,0-0.5,0.1-0.7c0,0,0,0,0-0.1
		C57.4,48,57.4,47.9,57.4,47.8L57.4,47.8L57.4,47.8z"/>
	<path class="st0" d="M45.4,52c-0.3,0.1-0.5,0.3-0.8,0.4c-0.6,0.4-1.2,0.9-1.7,1.5c-0.2,0.3-0.4,0.7-0.4,1c0,0.4,0.1,0.7,0.3,1h0.1
		v-0.1c-0.2-0.3-0.2-0.6-0.2-1c0-0.3,0.2-0.6,0.4-0.9c0.4-0.6,1-1.1,1.6-1.4C44.9,52.4,45.2,52.2,45.4,52C45.4,52.1,45.4,52,45.4,52
		L45.4,52z"/>
	<path class="st0" d="M46.1,53.3C46,53.3,46,53.3,46.1,53.3C46,53.3,46,53.3,46.1,53.3c-0.4,0.2-0.7,0.5-0.9,0.8
		c-0.1,0.1-0.2,0.3-0.2,0.4c-0.1,0.2-0.1,0.5-0.2,0.7c0,0,0,0.1,0.1,0.1c0,0,0.1,0,0.1-0.1c0-0.2,0.1-0.4,0.2-0.7
		c0.1-0.1,0.1-0.3,0.2-0.4C45.6,53.8,45.8,53.5,46.1,53.3L46.1,53.3C46.1,53.4,46.1,53.3,46.1,53.3L46.1,53.3L46.1,53.3z"/>
	<path class="st0" d="M48.8,54.5L48.8,54.5C48.8,54.6,48.8,54.6,48.8,54.5c0,0.1,0,0.1-0.1,0.2c-0.4,0.4-0.5,1-0.5,1.6
		c0,0.3,0.1,0.6,0.3,0.9c0.1,0.3,0.3,0.5,0.6,0.6c0.1,0,0.1,0.1,0.1,0.1c0,0.1-0.1,0.1-0.1,0.1c-0.4-0.2-0.6-0.4-0.8-0.7
		s-0.3-0.6-0.3-1c0-0.6,0.2-1.3,0.6-1.7l0.1-0.1C48.7,54.4,48.7,54.4,48.8,54.5L48.8,54.5L48.8,54.5L48.8,54.5L48.8,54.5L48.8,54.5z
		"/>
	<path class="st0" d="M72.9,58.4L72.9,58.4c0,0.1,0.1,0.2,0.1,0.2c0.5,0.4,1,0.7,1.4,1.2c0.3,0.3,0.4,0.7,0.5,1.2
		c0,0.4-0.1,0.8-0.1,1.2c0,0.2,0,0.4,0,0.6c0.1,0.4,0.4,0.8,0.6,1.3c0.1,0.2,0.1,0.3,0.1,0.5c-0.1,0.4-0.4,0.7-0.6,1.1
		c0,0.1-0.1,0.2-0.1,0.3c-0.1,0.7,0.2,1.2,0.3,1.8c0,0.2,0,0.5-0.2,0.7l0,0l0,0c0.2-0.3,0.2-0.5,0.2-0.8c0-0.6-0.3-1.1-0.2-1.8
		c0.1-0.4,0.4-0.7,0.6-1.1c0.1-0.1,0.1-0.2,0.1-0.3c0-0.2,0-0.4-0.1-0.6c-0.1-0.4-0.4-0.8-0.6-1.3c0-0.2,0-0.3,0-0.5
		c0-0.4,0.2-0.9,0.1-1.3c-0.1-0.6-0.3-1-0.6-1.3C74,59.1,73.4,58.7,72.9,58.4C73.1,58.4,73,58.3,72.9,58.4
		C73,58.3,73,58.3,72.9,58.4L72.9,58.4L72.9,58.4z"/>
	<path class="st0" d="M71.7,61.9L71.7,61.9c0.2,0.3,0.4,0.4,0.6,0.5c0.4,0.4,0.5,0.7,0.5,1s-0.1,0.6-0.2,0.9s-0.1,0.6-0.1,1
		c0,0.1,0.1,0.2,0.1,0.3c0.2,0.3,0.6,0.5,0.7,0.9c0,0.2,0.1,0.4,0,0.6c0,0.4-0.1,0.8-0.1,1.2c0,0.1,0,0.2,0,0.3l0,0l0,0v-0.1
		c0-0.1,0-0.1,0-0.2c0-0.3,0.1-0.8,0.1-1.2c0-0.3,0-0.5,0-0.6c-0.1-0.4-0.5-0.6-0.7-1c0-0.1-0.1-0.2-0.1-0.2c0-0.3,0-0.6,0.1-0.9
		c0.1-0.4,0.2-0.7,0.2-1c0-0.4-0.1-0.8-0.6-1.2C72,62,71.8,61.9,71.7,61.9C71.9,61.8,71.9,61.8,71.7,61.9
		C71.8,61.8,71.8,61.8,71.7,61.9L71.7,61.9L71.7,61.9z"/>
	<path class="st0" d="M69.2,61.5c0.1,0,0.1,0.1,0.2,0.1c0,0,0,0,0.1,0c0.4,0.2,0.7,0.4,0.9,0.7c0.3,0.5,0.4,1.1,0.5,1.7v0.1
		c0,0.1,0.1,0.2,0.2,0.3c0,0,0,0,0.1,0c0,0,0,0,0-0.1s0-0.2-0.1-0.3v-0.1c-0.2-0.6-0.3-1.2-0.6-1.7c-0.2-0.3-0.5-0.6-1-0.8
		c0,0,0,0-0.1,0C69.4,61.5,69.3,61.5,69.2,61.5L69.2,61.5L69.2,61.5z"/>
	<path class="st0" d="M52,63.7c-0.1,0.1-0.2,0.1-0.2,0.2c-0.2,0.2-0.2,0.4-0.3,0.6c-0.1,0.4,0,0.9-0.1,1.4c-0.1,0.4-0.4,0.7-0.5,1
		c0,0.1-0.1,0.2-0.1,0.3c0,0.2,0,0.3,0,0.5c0.1,0.3,0.2,0.5,0.3,0.8c0,0.1,0.1,0.1,0.1,0.2l0.1,0.1l0.1-0.1c0-0.1,0-0.1,0-0.2
		c-0.1-0.3-0.2-0.5-0.2-0.7c0-0.1,0-0.3,0-0.4c0.1-0.4,0.4-0.7,0.5-1c0-0.1,0.1-0.2,0.1-0.3c0.1-0.5,0-1,0.1-1.4
		c0-0.2,0.1-0.4,0.2-0.6C51.9,63.9,52,63.9,52,63.7L52,63.7L52,63.7z"/>
	<path class="st0" d="M50.5,69.7c-0.3-0.4-0.6-0.5-0.9-0.6c-0.4,0-0.9,0.3-1.1,0.9c-0.5,1.1-0.3,2.5,0.1,3.6
		c0.2,0.5,0.6,1.1,1.1,1.3c0.3,0.1,0.5,0,0.7-0.2s0.4-0.6,0.4-0.8c0.1-0.5,0.2-1.3,0.1-2c-0.1-0.5-0.3-0.9-0.7-1.1
		c-0.2-0.1-0.4-0.2-0.5-0.1c-0.3,0-0.6,0.4-0.8,0.7c-0.1,0.4-0.2,0.9-0.1,1.4c0.1,0.3,0.3,0.6,0.6,0.8c0.1,0.1,0.3,0,0.4-0.1
		c0.1-0.1,0-0.3-0.1-0.4c-0.2-0.1-0.3-0.3-0.3-0.5c-0.1-0.4-0.1-0.8,0.1-1.1c0.1-0.3,0.3-0.5,0.5-0.4c0.3,0.2,0.4,0.5,0.5,0.8
		c0.1,0.6,0.1,1.3-0.1,1.7c0,0.2-0.1,0.4-0.2,0.5c-0.1,0.1-0.2,0.2-0.3,0.1c-0.4-0.1-0.7-0.6-0.8-1c-0.4-1-0.6-2.2-0.2-3.3
		c0.1-0.3,0.4-0.6,0.7-0.6c0.2,0,0.3,0.1,0.5,0.3C50.2,69.7,50.3,69.8,50.5,69.7C50.6,70,50.6,69.8,50.5,69.7z"/>
	<path class="st0" d="M69.5,79.9L69.5,79.9c0-0.1,0-0.1,0.1-0.2s0.2-0.2,0.3-0.3c0.2-0.3,0.4-0.6,0.6-0.9c0.6-0.9,1-1.9,1.5-2.8
		c0.1-0.1,0.2-0.2,0.3-0.1c0.1,0.1,0.2,0.2,0.1,0.3c-0.1,0.2-0.2,0.4-0.3,0.6c0.1,0,0.1,0,0.2,0s0.1,0.1,0.2,0.2c0,0,0,0.1,0,0.2
		c0.1,0,0.2-0.1,0.2-0.1c0.2-0.1,0.3,0.1,0.3,0.1c0.1,0.1,0.1,0.2,0.1,0.3c0,0.1,0,0.2-0.1,0.3c-0.2,0.4-0.6,0.8-0.7,0.9
		c-0.3,0.3-0.6,0.5-0.9,0.8c-0.2,0.2-0.3,0.3-0.5,0.5c-0.3,0.3-0.6,0.5-0.9,0.6c-0.3,0.2-0.5,0.4-0.8,0.6c-0.1,0.1-0.3,0.1-0.4-0.1
		c-0.1-0.1-0.1-0.3,0.1-0.4C69.2,80.2,69.3,80.1,69.5,79.9z M70.9,78.8C70.9,78.9,70.9,78.9,70.9,78.8L70.8,79
		C70.8,78.9,70.9,78.9,70.9,78.8L70.9,78.8L70.9,78.8L70.9,78.8z"/>
	<g transform="matrix(0.980957,-0.194225,0.194225,0.980957,-60.1402,82.2459)">
		<path class="st0" d="M118.6,12.6c-0.2,0.2-0.4,0.3-0.5,0.5c-0.4,0.4-1.1,1.1-1.3,1.8c-0.2,0.5-0.1,1.1,0.4,1.5
			c0.2,0.1,0.3,0.3,0.5,0.4s0.5,0.2,0.8,0.3c0.1,0,0.3-0.1,0.3-0.2s-0.1-0.3-0.2-0.3c-0.2,0-0.4-0.1-0.6-0.2
			c-0.1-0.1-0.3-0.2-0.4-0.3c-0.4-0.4-0.3-0.8-0.1-1.3c0.3-0.5,0.7-1,1.1-1.3c0.2-0.2,0.3-0.3,0.5-0.5c0.1-0.1,0.1-0.3,0-0.4
			C118.9,12.5,118.7,12.5,118.6,12.6z"/>
	</g>
	<path class="st0" d="M55.7,68.8c0.1,0,0.2,0,0.3,0s0.2,0.1,0.2,0.2s0,0.3,0,0.4c-0.1,0.3-0.2,0.6-0.4,0.8c-0.1,0.1-0.1,0.1-0.2,0.2
		s-0.2,0.1-0.3,0c-0.1,0-0.1-0.1-0.2-0.1C55,70.2,55,70.1,55,69.9c0-0.3,0.1-0.6,0.3-0.8c0-0.1,0.1-0.1,0.1-0.2
		C55.5,68.9,55.6,68.8,55.7,68.8z"/>
	<path class="st0" d="M64.3,70.5L64.3,70.5c0.1-0.2,0.2-0.3,0.3-0.3c0.1-0.1,0.3-0.1,0.4-0.1s0.2,0.1,0.3,0.2
		c0.1,0.1,0.1,0.3,0.1,0.4c0,0.2-0.1,0.6-0.3,0.9c-0.2,0.3-0.4,0.4-0.7,0.3l0,0c-0.1,0-0.2,0-0.3-0.1c-0.2-0.2-0.2-0.4-0.1-0.6
		c0-0.1,0-0.1,0-0.2C64.1,70.9,64.2,70.7,64.3,70.5z"/>
	<path class="st0" d="M58.1,67.4c0-0.4-0.2-0.8-0.5-1.2c-0.2-0.2-0.5-0.4-0.7-0.5c-0.1,0-0.3,0.1-0.3,0.2s0.1,0.3,0.2,0.3
		c0.2,0,0.3,0.2,0.5,0.3c0.2,0.3,0.4,0.6,0.4,0.9c0,0.1,0.1,0.2,0.3,0.2C58,67.7,58.1,67.6,58.1,67.4z"/>
	<path class="st0" d="M56.8,66.4c-0.3-0.3-0.7-0.6-1.1-0.6c-0.1,0-0.3,0.1-0.3,0.2s0.1,0.3,0.2,0.3c0.4,0,0.6,0.3,0.9,0.5
		c0.1,0.1,0.3,0.1,0.4,0C56.9,66.7,56.9,66.5,56.8,66.4z"/>
	<path class="st0" d="M54.9,66.2c-0.1,0-0.2,0-0.3,0.1c-0.1,0-0.2,0.2-0.2,0.3c0,0.1,0.2,0.2,0.3,0.2s0.2,0,0.3-0.1
		c0.1,0,0.2-0.2,0.2-0.3C55.2,66.3,55.1,66.2,54.9,66.2z"/>
	<path class="st0" d="M64.6,68.6c0.3-0.4,0.9-0.7,1.4-0.8c0.1,0,0.2-0.2,0.2-0.3c0-0.1-0.2-0.2-0.3-0.2c-0.6,0.1-1.3,0.4-1.7,0.9
		c-0.1,0.1-0.1,0.3,0,0.4C64.4,68.7,64.6,68.7,64.6,68.6z"/>
	<path class="st0" d="M65.6,68.6c0.2-0.2,0.6-0.3,0.9-0.3c0.1,0,0.3-0.1,0.3-0.3c0-0.1-0.1-0.3-0.3-0.3c-0.4,0-0.9,0.1-1.2,0.4
		c-0.1,0.1-0.1,0.3,0,0.4C65.4,68.7,65.5,68.7,65.6,68.6z"/>
	<path class="st0" d="M66.4,69c0.2,0,0.4,0.1,0.5,0.1s0.3-0.1,0.3-0.2s-0.1-0.3-0.2-0.3c-0.2,0-0.4-0.1-0.5-0.1s-0.3,0.1-0.3,0.2
		C66.2,68.8,66.3,69,66.4,69z"/>
	<path class="st0" d="M61.8,79.5c0,0.1,0,0.3-0.1,0.3c-1.4,0.6-3.2,0.3-4.5-0.3c-0.4-0.2-0.9-0.3-1.3-0.7c0,0-0.3-0.2-0.3-0.4
		c0-0.1,0-0.2,0.1-0.3c0.1-0.1,0.3-0.2,0.4-0.3c0.6-0.5,1.5-0.8,2.2-0.3c0.2,0.1,0.3,0.3,0.4,0.5c0,0.1,0.1,0.1,0.1,0.2
		c0.1,0,0.2-0.1,0.2-0.1c0.3-0.1,0.6-0.2,1-0.2c0.9,0,1.4,0.6,1.9,1.2C61.8,79.4,61.8,79.5,61.8,79.5z M59.1,78.7
		c0,0-0.3,0.1-0.3,0.2c-0.1,0-0.2,0-0.2,0c-0.1-0.1-0.2-0.2-0.3-0.4c-0.1-0.1-0.1-0.3-0.3-0.4c-0.5-0.4-1.1-0.1-1.6,0.3
		c-0.1,0-0.1,0.1-0.2,0.1l0.1,0.1c0.3,0.3,0.7,0.4,1.1,0.6c1.2,0.4,2.7,0.8,4,0.4c-0.4-0.4-0.8-0.9-1.4-0.9
		C59.6,78.6,59.3,78.7,59.1,78.7z"/>
	<path class="st0" d="M56,78.7c-0.1,0-0.3,0-0.3-0.1c-0.1-0.1,0-0.3,0.1-0.3c0.7-0.3,1.6-0.5,2.3-0.2c0.2,0.1,0.4,0.2,0.5,0.4
		c0.4,0.1,0.7,0.1,1.1,0.2h0.1c0-0.1,0.1-0.2,0.1-0.2s0.1-0.1,0.3-0.1l0.2,0.1l0.1,0.1l0,0c0,0,0,0,0.1,0l0,0h0.1c0.1,0,0.1,0,0.1,0
		c0.1,0.1,0.2,0.2,0.2,0.2c0.1,0.1,0.2,0.1,0.2,0.2c0.1,0.1,0.1,0.2,0.1,0.4l-0.1,0.1c0,0,0,0.1-0.1,0.1c-0.1,0.1-0.2,0.1-0.4,0.1
		s-0.5,0-0.7,0l0,0c0,0-0.1,0-0.2,0c-0.1,0-0.2,0-0.3,0c-0.3,0-0.6-0.1-0.9-0.2c-0.6-0.2-1.2-0.3-1.9-0.5C56.6,79,56.3,78.9,56,78.7
		C56.1,78.8,56.1,78.7,56,78.7z"/>
	<path class="st0" d="M55.2,78.4c1.2,1.4,3.7,1.9,5.5,1.8c0.4,0,1-0.1,1.5-0.4c0.4-0.2,0.6-0.4,0.8-0.7c0.1-0.1,0-0.3-0.1-0.4
		s-0.3,0-0.4,0.1c-0.1,0.2-0.4,0.4-0.6,0.5c-0.4,0.2-0.9,0.3-1.3,0.3c-1.7,0.1-3.9-0.3-5.1-1.6c-0.1-0.1-0.3-0.1-0.4,0
		C55.1,78.2,55.1,78.3,55.2,78.4z"/>
	<path class="st0" d="M62.5,78.9c0.1,0.1,0.1,0.1,0.2,0.2c0,0.1,0.2,0.2,0.3,0.2s0.2-0.2,0.2-0.3c0-0.2-0.2-0.4-0.4-0.5
		c-0.1-0.1-0.3-0.1-0.4,0.1C62.4,78.6,62.4,78.8,62.5,78.9z"/>
	<path class="st0" d="M55.8,80.8c0.2,0.5,0.6,0.9,1.1,1.1c0.7,0.4,1.6,0.5,2.3,0.4c0.1,0,0.2-0.2,0.2-0.3c0-0.1-0.2-0.2-0.3-0.2
		c-0.6,0.1-1.3,0-1.9-0.3c-0.4-0.2-0.7-0.5-0.8-0.9c0-0.1-0.2-0.2-0.3-0.2C55.8,80.6,55.8,80.7,55.8,80.8z"/>
</g>
</svg>
