<?xml version="1.0" encoding="utf-8"?>
<!-- Generator: Adobe Illustrator 25.4.1, SVG Export Plug-In . SVG Version: 6.00 Build 0)  -->
<svg version="1.1" id="Layer_1" xmlns="http://www.w3.org/2000/svg" xmlns:xlink="http://www.w3.org/1999/xlink" x="0px" y="0px"
	 viewBox="0 0 56 53" style="enable-background:new 0 0 56 53;" xml:space="preserve">
<style type="text/css">
	.st0{fill-rule:evenodd;clip-rule:evenodd;fill:#0A0909;}
	.st1{fill:#0A0909;}
</style>
<g transform="matrix(1.07011,0,0,1.10621,-37.0064,-28.6869)">
	<g transform="matrix(0.999018,-0.0442976,0.0442976,0.999018,-2.31714,0.177479)">
		<path class="st0" d="M59.8,56.9c-0.3,0.5-0.6,1.1-0.8,1.7c-0.2,0.5-0.4,1-0.5,1.5c-0.4,1.1-1.1,3-0.9,4.4c0.1,1.1,0.7,1.9,2,2.1
			c0.4,0.1,0.7,0.1,1.1,0.1c0.6-0.1,1.1-0.3,1.6-0.5c0.1-0.1,0.2-0.3,0.1-0.4c-0.1-0.1-0.3-0.2-0.4-0.1c-0.4,0.2-0.9,0.4-1.4,0.5
			c-0.3,0-0.6,0-0.9-0.1c-0.5-0.1-0.9-0.3-1.1-0.5c-0.4-0.4-0.5-1.1-0.4-1.7c0.1-1.2,0.6-2.6,0.9-3.5c0.2-0.5,0.3-1,0.5-1.5
			s0.5-1.1,0.8-1.6c0.1-0.1,0-0.3-0.1-0.4C60,56.8,59.8,56.8,59.8,56.9z"/>
		<path class="st0" d="M56.6,56.6c0.2,0.1,0.3,0.4,0.3,0.7c0,0.4-0.1,0.8-0.2,1c-0.1,0.1-0.2,0.2-0.3,0.3s-0.3,0.1-0.4,0.1
			c-0.1,0-0.3-0.1-0.3-0.3c-0.1-0.1-0.1-0.3-0.1-0.4c0-0.3,0-0.7,0.1-1c0.1-0.2,0.3-0.4,0.6-0.5C56.4,56.4,56.5,56.5,56.6,56.6z"/>
		<path class="st0" d="M65.4,57.2c0.1-0.3,0.2-0.7,0.5-0.9c0.1-0.1,0.3-0.1,0.4,0l0,0c0.1,0,0.1,0.1,0.2,0.2
			c0.1,0.1,0.1,0.2,0.1,0.3c0.1,0.4,0.2,0.8,0,1.2c0,0.1-0.1,0.3-0.2,0.4c-0.1,0.1-0.3,0.2-0.4,0.1c-0.1,0-0.2,0-0.3-0.1
			c-0.1,0-0.1-0.1-0.2-0.1c-0.1-0.1-0.1-0.2-0.2-0.3C65.3,57.7,65.3,57.4,65.4,57.2z"/>
		<path class="st0" d="M55.9,68.9c0.6,0.5,1.3,0.6,2,0.7c1.5,0.3,3.1,0.3,4.5-0.2c0.6-0.2,1.1-0.5,1.6-0.7c0.1-0.1,0.2-0.3,0.1-0.4
			s-0.3-0.2-0.4-0.1c-0.5,0.3-1,0.5-1.5,0.7c-1.3,0.4-2.8,0.4-4.2,0.2c-0.6-0.1-1.2-0.2-1.7-0.6c-0.1-0.1-0.3-0.1-0.4,0
			C55.7,68.6,55.7,68.8,55.9,68.9z"/>
		<path class="st0" d="M56.1,68c-0.2,0.1-0.4,0.3-0.5,0.6c-0.1,0.3-0.1,0.5-0.1,0.7s0.2,0.3,0.4,0.2c0.2,0,0.3-0.2,0.3-0.4
			c0-0.1,0-0.3,0.1-0.4s0.1-0.2,0.2-0.3c0.1-0.1,0.2-0.3,0.1-0.4C56.4,68,56.2,67.9,56.1,68z"/>
		<path class="st0" d="M63.5,68.3c0.2,0.2,0.3,0.4,0.3,0.6s0.1,0.3,0.3,0.3c0.2,0,0.3-0.1,0.3-0.3c0-0.4-0.1-0.8-0.4-1.1
			c-0.1-0.1-0.3-0.1-0.4,0C63.4,68,63.4,68.2,63.5,68.3z"/>
		<path class="st0" d="M59.8,71.1c0.1,0,0.2-0.1,0.3-0.1c0.2,0,0.4,0,0.6,0h0.1c0.2,0,0.3,0.1,0.3,0.3v0.1v0.1c0.1,0.3,0,0.9,0,1.1
			s0,0.4,0,0.7c0,0.6,0.1,1.4,0,2c-0.1,0.5-0.5,0.8-1.2,0.9c-0.2,0-0.4,0-0.6-0.1c-0.4-0.1-0.5-0.3-0.5-0.6c0-0.1,0-0.2,0-0.4
			c0-0.4,0-0.8-0.1-1.2c0-0.3,0-0.6-0.1-0.9c0-0.2,0-0.4,0-0.6c0-0.1,0-0.3,0-0.4c0-0.4,0.1-0.6,0.3-0.7c0.1-0.1,0.2-0.1,0.4-0.2
			C59.5,71.1,59.6,71.1,59.8,71.1z"/>
		<path class="st0" d="M51.3,51.9c-0.8,4.3-1,8.5-1,12.9c0,2.3-0.1,4.8,0.9,7c1.4,3.1,5.3,4.6,8.6,4.7c0.2,0,0.3-0.1,0.3-0.3
			c0-0.2-0.1-0.3-0.3-0.3c-3.1,0-6.7-1.4-8.1-4.3c-1-2.1-0.8-4.5-0.9-6.7c0-4.3,0.2-8.5,1-12.8c0-0.2-0.1-0.3-0.3-0.3
			C51.5,51.6,51.4,51.7,51.3,51.9z"/>
		<path class="st0" d="M59.3,75.9C59.2,76,59.2,76,59,76s-0.3-0.1-0.3-0.3c0-0.8,0-1.5,0-2.3c0-0.5-0.1-1.1-0.1-1.6
			c0-0.3,0-0.6,0.2-0.9c0.1-0.2,0.3-0.3,0.5-0.3c0.1,0,0.2,0,0.3,0c0.4,0,0.8,0,1.2,0c0.1,0,0.3,0,0.5,0.1c0.1,0.1,0.2,0.1,0.3,0.3
			c0.1,0.3,0.1,0.6,0.1,1s-0.2,0.9-0.2,1.3c-0.1,0.6-0.1,1.2-0.2,1.9c0,0.1,0,0.4-0.1,0.6s-0.2,0.3-0.3,0.4s-0.3,0.1-0.5,0.1
			c-0.3,0-0.7-0.1-0.9-0.1C59.3,76.3,59.2,76.1,59.3,75.9L59.3,75.9z M61,71.5L61,71.5c-0.2,0-0.2,0-0.3,0c-0.4-0.1-0.8,0-1.2,0
			c-0.1,0-0.1,0-0.2,0c0,0,0,0-0.1,0c0,0.1,0,0.1,0,0.2s0,0.2,0,0.3c0,0.5,0,1,0.1,1.6c0,0.8,0,1.5,0,2.3V76
			c0.1-0.1,0.2-0.1,0.3-0.1S60,76,60.3,76c0.1,0,0.1,0,0.2,0l0,0l0,0v-0.1c0-0.1,0-0.3,0-0.4c0.1-0.6,0.1-1.2,0.2-1.9
			c0-0.3,0.1-0.7,0.2-1.1C61.1,72,61.1,71.7,61,71.5z"/>
		<path class="st0" d="M59.4,71.3c0.3,0.1,0.6,0.2,0.9,0.2c0.2,0,0.3-0.1,0.3-0.3c0-0.2-0.1-0.3-0.3-0.3c-0.3,0-0.5-0.1-0.7-0.2
			c-0.1-0.1-0.3,0-0.4,0.2C59.2,71.1,59.2,71.3,59.4,71.3z"/>
		<path class="st0" d="M59.7,76.5c0.1,0,0.1,0,0.2,0c0.2,0,0.3-0.1,0.4-0.3s-0.1-0.3-0.3-0.3c-0.1,0-0.1,0-0.1,0
			c-0.2,0-0.3,0.1-0.4,0.2C59.4,76.3,59.5,76.4,59.7,76.5z"/>
		<path class="st0" d="M59.2,76.3c1,0.3,2.1,0.3,3.1,0.2c3.1-0.2,6.5-1.2,8.5-3.7c1.5-1.9,2.1-4.1,2.5-6.5c0.1-0.7,0.3-1.3,0.3-1.9
			c0-0.2-0.1-0.3-0.3-0.3S73,64.2,73,64.4c0,0.6-0.2,1.2-0.3,1.9c-0.3,2.2-0.9,4.4-2.4,6.2c-1.9,2.4-5.2,3.3-8.1,3.5
			c-1,0.1-2,0-2.9-0.2c-0.2,0-0.3,0-0.4,0.2C59,76.1,59,76.3,59.2,76.3z"/>
		<path class="st0" d="M58.9,54.6c-0.1,0.1-0.2,0.2-0.4,0.2c-0.9-0.3-1.7-0.6-2.7-0.4c-0.3,0-0.6,0.1-0.9,0.2c0,0-0.5,0.2-0.6,0.2
			c-0.2,0-0.3-0.1-0.3-0.2c-0.1-0.2-0.1-0.5,0.1-0.8c0.1-0.3,0.4-0.6,0.6-0.7c0.9-0.9,2.4-1.5,3.7-1.2c0.8,0.2,1,1,0.9,1.8
			c0,0.2,0,0.4-0.1,0.5c0,0.1,0,0.1,0,0.2v0.1C58.9,54.5,58.9,54.5,58.9,54.6L58.9,54.6z M54.5,53.9L54.5,53.9L54.5,53.9
			C54.6,53.9,54.5,53.9,54.5,53.9z M58.1,53.5L58.1,53.5L58.1,53.5L58.1,53.5L58.1,53.5z"/>
		<g transform="matrix(-1,0,0,1,542.207,0)">
			<path class="st0" d="M477.9,54.6L477.9,54.6c0.1-0.1,0.1-0.1,0.1-0.1v-0.1c0-0.1,0-0.1,0-0.2c0-0.2,0.1-0.4,0.1-0.5
				c0.1-0.8,0-1.5-0.9-1.8c-1.3-0.4-2.8,0.3-3.7,1.2c-0.1,0.1-0.4,0.4-0.6,0.7c-0.1,0.3-0.2,0.5-0.1,0.8c0,0.1,0.1,0.2,0.3,0.2
				c0.1,0,0.6-0.2,0.6-0.2c0.3-0.1,0.6-0.1,0.9-0.2c1-0.1,1.8,0.1,2.7,0.4C477.7,54.8,477.8,54.7,477.9,54.6z M473.6,53.9
				L473.6,53.9l-0.1,0.1C473.5,53.9,473.6,53.9,473.6,53.9z M477,53.5C477.1,53.5,477.1,53.5,477,53.5L477,53.5L477,53.5L477,53.5z"
				/>
		</g>
		<path class="st0" d="M51.8,52.2c0.7-3.3,3.7-5.5,6.7-6.7c3.5-1.3,8.3-2.2,11.6,0.3c0.8,0.6,1.6,1.5,2.1,2.4c1.2,1.8,1.8,4,1.6,6.2
			c-0.1,0.9-0.3,1.8-0.4,2.8c-0.1,1-0.1,2,0.3,2.9c0.1,0.1,0.3,0.2,0.4,0.2s0.2-0.2,0.2-0.4c-0.4-0.9-0.4-1.7-0.3-2.6
			c0.1-0.9,0.4-1.9,0.4-2.8c0.2-2.3-0.4-4.6-1.7-6.5c-0.6-0.9-1.4-1.8-2.3-2.5c-3.4-2.6-8.4-1.8-12.2-0.4c-3.2,1.2-6.4,3.6-7.1,7.1
			c0,0.2,0.1,0.3,0.3,0.4C51.6,52.4,51.8,52.3,51.8,52.2z"/>
		<path class="st0" d="M72.4,39.5c-1.2-8.5-9.6-10.3-12.2-10.8c-1-0.2,0.1,1.6,0,1.6c-2.8-1.5-5.4-1.3-6.5-0.5
			c-0.9,0.7,0.9,1.4,0.7,1.5c-0.6,0.2-5.6,0.1-7,2.3c-0.9,1.3,2.4,1.1,2.4,1.1c-0.4,0.3-0.9,0.6-1.3,0.9c-1.7,1.1-3.2,2.3-4.5,4
			c-0.3,0.4-2.5,3.7-2.2,4.4c0.3,0.6,3.1-1.4,3.1-1.3l-0.2,0.4c-0.2,0.3-0.4,0.6-0.7,0.9c-0.4,0.6-2,3.7-1.6,4.5
			c0.2,0.5,2.4-1.1,2.4-1.2c0.1,0,0.3-0.2,0.2-0.1c-1.4,2.8-1.5,4.2-0.8,4.2c0.4,0,1.1-0.3,2-1.8c0,0-0.7,3.2-0.3,3.3
			c0.5,0.2,1.7-1.2,2-1.5c0,0,0.4-0.5,0.5-0.5c0.5,0.3-0.6,1.7,0,1.9s1.3-0.3,1.8-0.6c0.3-0.2,0.7-0.3,0.9-0.5
			c0.6-0.6,0.8-1.6,1.3-2.3c4.8-5.8,12.9-6.9,18.7-3.4L72.4,39.5z"/>
		<path class="st0" d="M50.4,50.6c0-0.2,0.1-0.4,0.1-0.6c0-0.1,0.2-0.6,0.2-0.7c0-0.1,0.1-0.2,0.1-0.3s0.1-0.1,0.1-0.1
			c0.1-0.1,0.2-0.1,0.3-0.1s0.3,0.1,0.3,0.3c0,0.1,0,0.3,0,0.4l0,0c0.1-0.2,0.3-0.1,0.4-0.1c0,0,0.3,0.1,0.2,0.4
			c-0.4,2.3-1.1,4.5-1.2,6.8c0,0.5,0,1.1-0.1,1.6c0,0.1,0,0.3-0.1,0.4c0,0.1-0.1,0.1-0.1,0.2c0,0.1,0,0.1,0,0.2
			c0,0.3-0.2,0.3-0.3,0.3s-0.2,0-0.3-0.1c0,0,0-0.1-0.1-0.1c0,0,0-0.1-0.1-0.2c-0.2,0-0.4-0.1-0.5-0.3c-0.1-0.1-0.3-0.3-0.4-0.4
			c0,0.1-0.1,0.1-0.2,0.1c-0.2,0.1-0.3,0-0.4-0.2c-0.2-0.6-0.2-1.3-0.2-1.9c-0.3-1.2-0.5-2.5-0.4-3.7c0-0.4,0.1-0.8,0.1-1.2l0,0
			c0-0.3,0-0.8,0.1-1.2l0,0c0-0.1,0-0.3,0-0.4c0.1-0.2,0.2-0.2,0.3-0.2c0,0,0.3,0,0.3,0.3l0,0c0.1,0,0.1,0,0.2,0.1
			c0.1-0.2,0.3-0.2,0.4-0.2c0.1,0,0.2,0,0.2,0.2c0,0,0,0.1,0,0.2c0,0.1,0,0.3,0,0.4v0.1l0,0c0.1,0,0.2,0,0.3,0.3l0,0
			c0-0.1,0.1-0.1,0.1-0.2c0.1-0.1,0.2-0.1,0.3-0.1C50.2,50.3,50.3,50.4,50.4,50.6C50.4,50.5,50.4,50.5,50.4,50.6z"/>
		<path class="st0" d="M68.7,41c0,0,2.9-2.6,4.8-3.4c0.4-0.1,1.4-0.6,1.8-0.4c0.2,0.1-0.1,0.5-0.1,0.6c-0.3,0.6-0.8,1.1-1.2,1.6
			c-0.1,0.1-0.2,0.3-0.4,0.4c-0.1,0.1-0.3,0.2-0.2,0.2c0.9-0.1,1.6-0.7,2.5-0.7c0.1,0,0.8,0,0.8,0c-0.1,0.5-0.8,0.9-1.2,1.3
			l-0.4,0.3c0,0.1,0.7,0.1,0.7,0.1c0.3,0,1.7,0,1.8,0.4c0.1,0.4-0.7,0.7-0.9,0.8c-0.1,0-0.4,0.1-0.4,0.2c0,0.4,0.4,0.8,0.6,1.1
			c0.3,0.5,0.5,1,0.6,1.5c0.4,1.7,0.1,3.6,0,5.3c-0.1,1.8-0.3,3.6-0.5,5.3c-0.1,0.5,0,1.6-0.4,2c-0.3,0.4-0.9,0.6-1.3,0.8
			c-0.3,0.2-0.6,0.5-0.9,0.8c-0.1,0.1-0.1,0.2-0.2,0.3l-0.1,0.1c-0.8-0.5-0.5-1.9-0.4-2.6c0.2-1.2,0.6-5.8,0.2-6.7
			c-0.6-1.6-1.5-3.1-2.7-4.3c-0.5-0.5-1.1-0.9-1.6-1.4C68.8,43.8,68.5,42.3,68.7,41z"/>
		<g>
			<g>
				<path class="st1" d="M74.1,65.2c-0.4,0-0.8-0.2-1.1-0.6v-0.1l0.3-1.2c0.3-0.9,0.7-3.4,0.7-3.4v-0.1l0,0c0.4-0.5,1.5-1.3,2.5-0.7
					c0.4,0.2,0.6,0.6,0.7,1.2c0.2,1.2-0.3,2.7-0.9,3.6C75.7,64.7,74.9,65.2,74.1,65.2L74.1,65.2z M73.5,64.5
					c0.2,0.2,0.4,0.3,0.7,0.3c0.6,0,1.3-0.5,1.8-1.2c0.5-0.8,1-2.2,0.8-3.2c-0.1-0.4-0.3-0.7-0.5-0.9c-0.9-0.5-1.7,0.3-1.8,0.5
					c-0.1,0.4-0.4,2.5-0.7,3.4L73.5,64.5z"/>
			</g>
			<g>
				<g>
					<g>
						<path class="st1" d="M73.7,62.3L73.7,62.3c-0.1,0-0.1-0.1-0.1-0.2c1.1-1.9,2.6-1.4,2.6-1.4c0.1,0,0.1,0.1,0.1,0.1
							c0,0.1-0.1,0.1-0.1,0.1c-0.1,0-1.3-0.4-2.3,1.3C73.8,62.3,73.8,62.3,73.7,62.3z"/>
					</g>
				</g>
				<g>
					<path class="st1" d="M74.9,63.3L74.9,63.3c-0.1-0.1-0.1-0.1-0.1-0.2c0.3-0.3,0.4-0.5,0.3-0.8c-0.1-0.5-0.7-0.9-0.7-0.9
						c-0.1,0-0.1-0.1,0-0.1c0-0.1,0.1-0.1,0.2,0c0,0,0.7,0.4,0.8,1.1c0.1,0.3-0.1,0.7-0.4,1C75,63.3,75,63.3,74.9,63.3z"/>
				</g>
			</g>
		</g>
		<g>
			<g>
				<path class="st1" d="M50.1,63c-0.6,0-1.3-0.5-1.7-1.3c-0.4-0.7-0.7-2.1-0.4-3c0.1-0.4,0.4-0.7,0.7-0.9c0.9-0.5,1.7,0.3,2,0.7
					l0,0l0,0c0,0,0.1,2.1,0.3,2.8l0.2,1L51,62.6C50.8,62.9,50.5,63.1,50.1,63L50.1,63z M50.6,61.6c-0.1-0.7-0.3-2.5-0.3-2.8
					c-0.1-0.2-0.7-0.9-1.5-0.6c-0.2,0.1-0.4,0.3-0.5,0.7c-0.3,0.8,0,2,0.4,2.7c0.4,0.6,0.9,1.1,1.4,1.1c0.2,0,0.4-0.1,0.6-0.2
					L50.6,61.6z"/>
			</g>
			<g>
				<g>
					<g>
						<path class="st1" d="M50.7,60.7L50.7,60.7C50.8,60.7,50.8,60.6,50.7,60.7c-0.6-1.7-1.9-1.4-1.9-1.4l-0.1,0.1l0.1,0.1
							C48.9,59.4,49.9,59.2,50.7,60.7C50.6,60.7,50.6,60.7,50.7,60.7z"/>
					</g>
				</g>
				<g>
					<path class="st1" d="M49.6,61.4C49.7,61.4,49.7,61.4,49.6,61.4C49.7,61.4,49.7,61.3,49.6,61.4c-0.1-0.4-0.2-0.6-0.1-0.8
						c0.1-0.4,0.6-0.7,0.6-0.7s0.1-0.1,0-0.1c0,0-0.1-0.1-0.1,0c0,0-0.6,0.3-0.7,0.8C49.3,60.8,49.3,61.1,49.6,61.4L49.6,61.4z"/>
				</g>
			</g>
		</g>
	</g>
</g>
</svg>
